<?xml version="1.0" encoding="utf-8"?>
<!-- Generator: Adobe Illustrator 22.1.0, SVG Export Plug-In . SVG Version: 6.00 Build 0)  -->
<svg version="1.1" id="Layer_1" xmlns="http://www.w3.org/2000/svg" xmlns:xlink="http://www.w3.org/1999/xlink" x="0px" y="0px"
	 viewBox="0 0 557.3 538.8" style="enable-background:new 0 0 557.3 538.8;" xml:space="preserve">
<style type="text/css">
	.st0{fill:#FEFEFE;}
	.st1{fill:#EFF2F7;}
	.st2{fill:#EDF0F5;}
	.st3{fill:#DCDDE2;}
	.st4{fill:#E5E8ED;}
	.st5{fill:#6B9BFC;}
</style>
<g>
	<g>
		<path class="st0" d="M-22.1-32.2c201.1,0.2,402.1,0.3,603.2,0.5c-0.2,199.9-0.3,399.8-0.5,599.8c-201.1-0.2-402.1-0.3-603.2-0.5
			C-22.4,367.6-22.3,167.7-22.1-32.2z M277.5,534.9c150.4,0.3,278.2-119.5,277.3-264.3C554,122.9,441,4.3,274,1.5
			C132.9-0.9,3.5,125,3.2,259.3C2.7,412.4,124.3,534.5,277.5,534.9z"/>
		<path class="st1" d="M277.5,534.9C124.3,534.5,2.7,412.4,3.2,259.3C3.5,125,132.9-0.9,274,1.5C441,4.3,554,122.9,554.8,270.6
			C555.6,415.4,427.8,535.2,277.5,534.9z M67.9,264.8c4,49.2,5,97.1,13.4,143.8c2.9,16.1,21.6,34.1,37.8,42.3
			c17.6,8.8,40.8,9.4,61.7,9.6c71.4,0.9,142.8,0.6,214.2-0.1c56.6-0.6,82.8-24.3,83.6-77.7c1.1-77.2,0.8-154.4,0.3-231.6
			c-0.3-47.1-26.3-67.4-75.6-61.3c-9.7,1.2-19.7,1-29.5,1C289.6,91,205.4,89,121.6,93.4c-14.7,0.8-36.5,26.1-40.1,43.1
			C72.3,178.8,71.8,222.8,67.9,264.8z"/>
		<path class="st2" d="M67.9,264.8c3.9-42,4.5-86,13.6-128.2c3.7-17,25.4-42.4,40.1-43.1c83.8-4.4,168-2.4,252.1-2.7
			c9.8,0,19.8,0.2,29.5-1c49.3-6.1,75.3,14.2,75.6,61.3c0.5,77.2,0.9,154.4-0.3,231.6c-0.8,53.4-27,77.1-83.6,77.7
			c-71.4,0.7-142.8,1-214.2,0.1c-20.8-0.3-44.1-0.8-61.7-9.6c-16.3-8.1-34.9-26.1-37.8-42.3C72.8,361.9,71.9,314,67.9,264.8z
			 M453.6,165.3c-0.1-8.2-0.1-16.5-0.2-24.7c-8.4-8.2-16.8-16.4-25.2-24.6c-99.3-0.1-198.6-0.2-297.9-0.2
			c-8.3,8.2-16.6,16.3-25,24.5c-0.1,5.5-0.2,11-0.2,16.5c0,82.2-0.1,164.4-0.1,246.6c5.7,8.2,11.4,16.5,17.1,24.7
			c2.8-0.1,5.6-0.2,8.4-0.2l0,0.1c87.9,0.1,175.9,0.1,263.8,0.2c5.5-0.1,10.9-0.1,16.4-0.2c5.8,0,11.5,0.1,17.3,0.1
			c5.7-5.6,11.4-11.1,17.1-16.7c2.8-12.7,7.9-25.4,8-38.2C453.9,303.9,453.5,234.6,453.6,165.3z"/>
		<path class="st0" d="M122.1,428.1c-5.7-8.2-11.4-16.5-17.1-24.7c2.8-12.8,8-25.5,8.1-38.3c0.8-69.4,0.3-138.8,0.2-208.1
			c-2.7-5.6-5.4-11.1-8.1-16.7c8.3-8.2,16.6-16.3,25-24.5c10.4,2.7,20.7,7.8,31.1,7.9c78.6,0.7,157.3,0.8,235.9,0.2
			c10.4-0.1,20.7-5.1,31-7.8c8.4,8.2,16.8,16.4,25.2,24.6c-2.7,8.3-5.4,16.6-8.1,24.9c-0.1,82-0.2,164-0.3,246
			c-5.7,5.6-11.4,11.1-17.1,16.7c-5.8,0-11.5-0.1-17.3-0.1c-5.5,0.1-10.9,0.1-16.4,0.2c-13.1-2.7-26.2-7.7-39.4-7.9
			c-58.8-0.9-117.7-1-176.6-0.1c-16,0.2-31.9,5.1-47.8,7.8c0,0,0-0.1,0-0.1C127.6,427.9,124.9,428,122.1,428.1z M158.2,292
			c54,8.2,56.9,6.1,57.3-40.3c0.1-13.6,0.1-27.1,0-40.7c-0.3-47.6-7.3-52.4-57.2-39.2C158.3,211.9,158.3,252.1,158.2,292z
			 M345,293.2c55.8,6.1,57.1,5.1,57.4-42.8c0.1-13.6,0.1-27.1,0-40.7c-0.4-46.1-3.5-48.4-57.3-39.8C345.1,209.9,345,250.1,345,293.2
			z M251.7,374.9c54.9,7,56.8,5.5,57.2-41.7c0.1-13.6,0.1-27.1,0-40.7c-0.3-46.7-2.9-48.6-57.1-40.9
			C251.8,291.5,251.7,331.7,251.7,374.9z M251.6,220.4c22.7-7.4,39.5-11,54-18.8c3.7-2,2.8-23.4-0.8-24.9
			c-16-6.6-33.8-9.2-53.1-13.7C251.6,184,251.6,197,251.6,220.4z M157,384.4c22.8-7.5,40.3-11.6,55.6-19.5c3.3-1.7,1.8-23.5-2-24.9
			c-16.2-6.2-34.1-8.1-53.6-12.1C157,348,157,360,157,384.4z M345.1,383.4c21-6.5,38.6-10.3,54.1-17.9c3.4-1.7,2.3-23.4-1.4-24.9
			c-16.1-6.4-33.9-8.7-52.7-12.9C345.1,348.7,345.1,361.7,345.1,383.4z"/>
		<path class="st3" d="M428.2,116c-10.3,2.7-20.7,7.8-31,7.8c-78.6,0.6-157.3,0.5-235.9-0.2c-10.4-0.1-20.7-5.1-31.1-7.9
			C229.6,115.8,328.9,115.9,428.2,116z"/>
		<path class="st3" d="M130.4,428c15.9-2.7,31.8-7.6,47.8-7.8c58.8-0.9,117.7-0.8,176.6,0.1c13.2,0.2,26.3,5.1,39.4,7.9
			C306.3,428.1,218.3,428,130.4,428z"/>
		<path class="st3" d="M113.4,157c0,69.4,0.5,138.8-0.2,208.1c-0.1,12.8-5.3,25.5-8.1,38.3c0-82.2,0.1-164.4,0.1-246.6
			C107.8,156.8,110.6,156.9,113.4,157z"/>
		<path class="st3" d="M445,411.4c0.1-82,0.2-164,0.3-246c2.8-0.1,5.5-0.1,8.3-0.2c-0.1,69.3,0.3,138.6-0.5,208
			C452.9,386,447.8,398.7,445,411.4z"/>
		<path class="st4" d="M453.6,165.3c-2.8,0-5.5,0.1-8.3,0.2c2.7-8.3,5.4-16.6,8.1-24.9C453.5,148.8,453.5,157,453.6,165.3z"/>
		<path class="st4" d="M113.4,157c-2.8-0.1-5.5-0.2-8.3-0.2c0.1-5.5,0.2-11,0.2-16.5C108,145.8,110.7,151.4,113.4,157z"/>
		<path class="st4" d="M410.6,428c5.8,0,11.5,0.1,17.3,0.1C422.1,428.1,416.3,428,410.6,428z"/>
		<path class="st4" d="M122.1,428.1c2.8-0.1,5.6-0.2,8.4-0.2C127.6,427.9,124.9,428,122.1,428.1z"/>
		<path class="st5" d="M158.2,292c0-39.9,0.1-80.1,0.1-120.3c50-13.1,57-8.3,57.2,39.2c0.1,13.6,0.1,27.1,0,40.7
			C215.1,298.1,212.2,300.2,158.2,292z"/>
		<path class="st5" d="M345,293.2c0-43.2,0.1-83.4,0.1-123.2c53.8-8.6,57-6.4,57.3,39.8c0.1,13.6,0.1,27.1,0,40.7
			C402.1,298.4,400.8,299.3,345,293.2z"/>
		<path class="st5" d="M251.7,374.9c0-43.2,0.1-83.4,0.1-123.3c54.3-7.7,56.8-5.8,57.1,40.9c0.1,13.6,0.1,27.1,0,40.7
			C308.5,380.4,306.6,381.9,251.7,374.9z"/>
		<path class="st5" d="M251.6,220.4c0-23.4,0-36.4,0-57.5c19.3,4.6,37.1,7.1,53.1,13.7c3.6,1.5,4.6,22.9,0.8,24.9
			C291.1,209.3,274.2,213,251.6,220.4z"/>
		<path class="st5" d="M157,384.4c0-24.4,0-36.4,0-56.6c19.5,4,37.4,6,53.6,12.1c3.8,1.4,5.3,23.2,2,24.9
			C197.3,372.8,179.8,376.9,157,384.4z"/>
		<path class="st5" d="M345.1,383.4c0-21.7,0-34.7,0-55.7c18.8,4.2,36.6,6.5,52.7,12.9c3.7,1.5,4.8,23.3,1.4,24.9
			C383.7,373.1,366.1,376.9,345.1,383.4z"/>
	</g>
</g>
</svg>
