<?xml version="1.0" encoding="utf-8"?>
<!-- Generator: Adobe Illustrator 22.1.0, SVG Export Plug-In . SVG Version: 6.00 Build 0)  -->
<svg version="1.1" id="Layer_1" xmlns="http://www.w3.org/2000/svg" xmlns:xlink="http://www.w3.org/1999/xlink" x="0px" y="0px"
	 viewBox="0 0 509 486" style="enable-background:new 0 0 509 486;" xml:space="preserve">
<style type="text/css">
	.st0{fill:#FEFEFE;}
	.st1{fill:#EFF2F7;}
	.st2{fill:#F95F7D;}
	.st3{fill:#DDDEE3;}
	.st4{fill:#DCDDE3;}
	.st5{fill:#E5E8ED;}
	.st6{fill:#B0B8CA;}
	.st7{fill:#AFB7CA;}
	.st8{fill:#FBFCFD;}
</style>
<g>
	<g>
		<path class="st0" d="M548.8,222.2c0,97-0.2,194,0.3,291.1c0.1,9.7-1.9,11.5-12.1,11.5c-196.2-0.4-392.3-0.4-588.5,0
			c-10.2,0-12.1-1.8-12.1-11.5c0.4-196.5,0.4-393.1,0-589.6c0-9.7,1.9-11.5,12.1-11.5c196.2,0.4,392.3,0.4,588.5,0
			c10.2,0,12.1,1.8,12.1,11.5C548.7,23.2,548.8,122.7,548.8,222.2z M-1.4,236.1c4.3,65.3,21,122.4,68.3,170.1
			c62.7,63.3,120.3,78.3,184.5,80.1c65.2,1.8,123.3-19.3,172.4-62.5c65.4-57.5,83.7-114.9,85.1-178.9c1.4-59.5-19.5-112.5-62.4-158
			C394.1,31.5,329.6,2.6,252,2.4C186,2.2,130.3,26.6,81.1,69.2C27.7,115.3,5.1,172.7-1.4,236.1z"/>
		<path class="st1" d="M-1.4,236.1c6.5-63.4,29.1-120.8,82.5-167C130.3,26.6,186,2.2,252,2.4c77.6,0.2,142.1,29.1,194.5,84.5
			c42.9,45.4,63.8,98.4,62.4,158c-1.5,64-19.8,121.4-85.1,178.9c-49.2,43.2-107.3,64.4-172.4,62.5c-64.2-1.8-121.8-16.8-184.5-80.1
			C19.6,358.5,2.9,301.5-1.4,236.1z M415.5,367.7c0-56.6,0.2-113.2-0.2-169.7c0-5.9,5.4-15.6-7.6-16.9c0-2.5,0-5,0-7.5
			c0-12.4,0-24.9,0-37.3c2.2-0.8,5.9-1.3,6.2-2.5c1.1-4.5-2.4-5.2-6.2-4.9c-6.8-11.7-13.7-22.6-30.8-22.5
			c-84.3,0.3-168.6,0.3-252.9,0c-12,0-19.1,4.4-22.3,15.1c-2.2,0.8-5.9,1.3-6.2,2.5c-1.1,4.5,2.4,5.2,6.2,4.9c0,14.9,0,29.9,0,44.8
			c0,2.5,0,5,0,7.5c-13,1.3-7.6,10.9-7.6,16.9c-0.4,56.6-0.2,113.1-0.2,169.7c0.3,22.1,0.3,22.1,23.5,22.4c91.5,0,183.1,0,274.6,0
			c6.2,0,13.3,1.9,18.5-0.4C420.8,385.2,413.5,375.1,415.5,367.7z"/>
		<path class="st0" d="M407.6,173.7c0,2.5,0,5,0,7.5c0,62.2,0,124.4,0,186.6c-1.9,8.1-7.1,13.1-15.7,14.9c-91.5,0-183.1,0-274.6,0
			c-8.6-1.8-13.8-6.8-15.7-14.9c0-62.2,0-124.4,0-186.6c0-2.5,0-5,0-7.5C203.6,173.7,305.6,173.7,407.6,173.7z M258.5,283.5
			c0,3.7-0.1,7.5,0,11.2c0.6,27.7,25.1,47.7,52.9,43.2c17.5-2.8,34.6-29.6,29-45.2c-10.3-28.5-10.3-28.5-40.7-29.4
			c-2.6-0.1-5.2-0.2-7.8,0c-4.1,0.3-8.3-0.4-9.6-4.1c-1.9-5.2,0.7-10.1,5.6-12.5c13.1-6.1,26.3-12.2,41.2-13.4
			c2.3-0.2,4.5-1.7,6.7-2.5c-2-2.6-3.8-5.4-6.1-7.9c-1.6-1.7-3.7-3.8-5.9-4.3c-29.1-6.9-63.9,17.7-65.3,46.2
			C258.3,271,258.5,277.2,258.5,283.5z M207.2,337.9c10.4,0,20.8-0.7,31.1,0.2c11.1,1,12.7-4.1,12.6-12.9c-0.1-8.5-4.3-9.2-11.8-10
			c-11.8-1.3-29.6,8-34.2-5.6c-4-11.6,14.4-18.1,22.1-27.4c2.4-2.9,5.2-5.6,8.3-7.8c13.1-9.3,7.5-22.7,7-34.1
			c-0.4-8.2-10.1-10.9-17.9-15.2c-15.3-8.6-26.2-8.9-41.4,0.1c-7,4.1-18.1,6.7-15.3,14c3.7,9.8,14,14.6,23.5,2.6
			c0.6-0.7,2.3-0.7,3.5-0.8c7.9-0.6,14.6,0.2,20.6,6.8c7.1,7.8,0.4,11.8-1.7,18.3c-3.7,11.6-12.5,17.8-20.1,25.5
			c-8.9,9-19,17-27.3,26.4c-6.8,7.7-0.4,19.7,9.9,19.9C186.4,338.1,196.8,337.9,207.2,337.9z"/>
		<path class="st2" d="M407.6,173.7c-102,0-204,0-306,0c0-14.9,0-29.9,0-44.8c0-2.5,0-5,0-7.5c3.2-10.7,10.3-15.1,22.3-15.1
			c84.3,0.3,168.6,0.3,252.9,0c17-0.1,23.9,10.8,30.8,22.5c0,2.5,0,5,0,7.5C407.6,148.8,407.6,161.2,407.6,173.7z"/>
		<ellipse class="st3" cx="254.6" cy="386.4" rx="194.2" ry="5.3"/>
		<path class="st3" d="M101.6,181.1c0,62.2,0,124.4,0,186.6c-2.6,0-5.2,0-7.8,0c0-56.6-0.2-113.2,0.2-169.7
			C94.1,192.1,88.6,182.4,101.6,181.1z"/>
		<path class="st4" d="M407.6,367.7c0-62.2,0-124.4,0-186.6c13,1.3,7.6,10.9,7.6,16.9c0.4,56.6,0.2,113.1,0.2,169.7
			C412.8,367.7,410.2,367.7,407.6,367.7z"/>
		<path class="st5" d="M93.8,367.7c2.6,0,5.2,0,7.8,0c1.9,8.1,7.1,13.1,15.7,14.9c0,2.5,0,5,0,7.5C94.1,389.8,94.1,389.8,93.8,367.7
			z"/>
		<path class="st5" d="M407.6,367.7c2.6,0,5.2,0,7.8,0c-1.9,7.4,5.3,17.4-5.1,22c-5.1,2.2-12.2,0.4-18.5,0.4c0-2.5,0-5,0-7.5
			C400.5,380.8,405.7,375.9,407.6,367.7z"/>
		<path class="st3" d="M101.6,121.4c0,2.5,0,5,0,7.5c-3.8,0.3-7.3-0.5-6.2-4.9C95.7,122.7,99.4,122.3,101.6,121.4z"/>
		<path class="st4" d="M407.6,136.4c0-2.5,0-5,0-7.5c3.8-0.3,7.3,0.5,6.2,4.9C413.5,135.1,409.8,135.5,407.6,136.4z"/>
		<path class="st6" d="M258.5,283.5c0-6.2-0.3-12.4,0-18.6c1.4-28.5,36.2-53.2,65.3-46.2c2.2,0.5,4.3,2.6,5.9,4.3
			c2.3,2.4,4.1,5.2,6.1,7.9c-2.2,0.9-4.4,2.4-6.7,2.5c-14.9,1.2-28.1,7.3-41.2,13.4c-5,2.3-7.5,7.2-5.6,12.5
			c1.3,3.8,5.5,4.4,9.6,4.1c2.6-0.2,5.2-0.1,7.8,0c30.5,0.9,30.5,0.9,40.7,29.4c5.6,15.7-11.5,42.4-29,45.2
			c-27.9,4.5-52.4-15.5-52.9-43.2C258.5,290.9,258.5,287.2,258.5,283.5z M321.3,293.9c-1.5-9.2-6.9-14.9-17.4-15.8
			c-10.3-0.9-20.2,6-21.9,15.6c-2,11.2,6.5,20.7,19.3,21.8C308.3,316.1,320.5,303.2,321.3,293.9z"/>
		<path class="st7" d="M207.2,337.9c-10.4,0-20.8,0.2-31.2-0.1c-10.3-0.2-16.7-12.2-9.9-19.9c8.3-9.4,18.4-17.4,27.3-26.4
			c7.6-7.7,16.5-13.9,20.1-25.5c2.1-6.6,8.8-10.5,1.7-18.3c-6-6.6-12.7-7.4-20.6-6.8c-1.2,0.1-2.9,0.1-3.5,0.8
			c-9.5,11.9-19.8,7.2-23.5-2.6c-2.8-7.2,8.3-9.8,15.3-14c15.2-9,26-8.6,41.4-0.1c7.8,4.4,17.6,7,17.9,15.2
			c0.5,11.4,6.1,24.8-7,34.1c-3.1,2.2-5.9,4.9-8.3,7.8c-7.7,9.4-26.1,15.8-22.1,27.4c4.6,13.5,22.4,4.2,34.2,5.6
			c7.5,0.8,11.7,1.5,11.8,10c0.1,8.8-1.5,13.9-12.6,12.9C228.1,337.2,217.6,337.9,207.2,337.9z"/>
		<path class="st8" d="M321.3,293.9c-0.9,9.2-13.1,22.1-20,21.6c-12.8-1-21.3-10.6-19.3-21.8c1.7-9.5,11.6-16.5,21.9-15.6
			C314.5,279.1,319.8,284.8,321.3,293.9z"/>
	</g>
</g>
</svg>
