<?xml version="1.0" encoding="utf-8"?>
<!-- Generator: Adobe Illustrator 22.1.0, SVG Export Plug-In . SVG Version: 6.00 Build 0)  -->
<svg version="1.1" id="Layer_1" xmlns="http://www.w3.org/2000/svg" xmlns:xlink="http://www.w3.org/1999/xlink" x="0px" y="0px"
	 viewBox="0 0 486 486" style="enable-background:new 0 0 486 486;" xml:space="preserve">
<style type="text/css">
	.st0{fill:#F5F6FA;}
	.st1{fill:#E5EAF0;}
	.st2{fill:#FEFEFE;}
	.st3{fill:#D2D7DD;}
	.st4{fill:#DCE1E7;}
	.st5{fill:#E0E5EB;}
	.st6{fill:#6B9AFC;}
	.st7{fill:#6B9BFC;}
</style>
<g>
	<g>
		<path class="st0" d="M552.5,544.4c-204,0-408,0-612,0c0-198.3,0-396.7,0-595c204,0,408,0,612,0
			C552.5,147.8,552.5,346.1,552.5,544.4z M236.4,484.9c135.6,0.2,248.3-107.6,248.9-238.1c0.6-133.8-109-244.9-242-245.3
			C109,1.2,0.1,109.5,0.2,243.4C0.2,373.8,108.7,484.7,236.4,484.9z"/>
		<path class="st1" d="M236.4,484.9C108.7,484.7,0.2,373.8,0.2,243.4C0.1,109.5,109,1.2,243.3,1.5c133,0.3,242.6,111.5,242,245.3
			C484.7,377.3,372,485.1,236.4,484.9z M380.6,113.1c0,0,0.1,0.2,0.1,0.2c-9.9-2.6-19.8-5.2-29.7-7.8c-77.1,0-154.3,0-231.4,0
			c-7.4,2.6-14.9,5.1-22.3,7.7c-0.1,5-0.1,10-0.2,15c-2.5,11.5-6.9,23.1-7,34.7c-0.7,65.3-0.3,130.5-0.2,195.8
			c7.3,7.3,14.6,14.6,21.9,21.9c6.5,2,13,5.8,19.5,5.7c78.2-1.4,156.5-3.4,234.7-5.3c3.2,3.6,6.4,7.2,9.6,10.8
			c1.7-6.2,3.4-12.5,5.2-18.7c2.4-2.4,4.8-4.7,7.2-7.1c21.2-4.9,18.1-16.4,7.9-29.7c0-67.1-0.1-134.1-0.1-201.2
			c-2.5-4.9-5.1-9.8-7.6-14.7C385.6,117.9,383.1,115.5,380.6,113.1z"/>
		<path class="st2" d="M97,128.2c0.1-5,0.1-10,0.2-15c7.5-0.2,15-0.4,22.5-0.6c77,0,154,0,231.1,0c10,0.2,19.9,0.4,29.9,0.6
			c0,0-0.1-0.2-0.1-0.2c2.5,2.4,5,4.8,7.5,7.2c2.5,4.9,5.1,9.8,7.6,14.7c-2.5,10.3-7,20.6-7.1,31c-0.6,56.7-0.1,113.3,0.1,170
			c-0.3,9.9-0.5,19.9-0.8,29.8c-2.4,2.4-4.8,4.7-7.2,7.1c-5,0.3-10,0.5-15,0.8c-73-0.1-146-0.6-219,0c-11.7,0.1-23.3,4.5-35,6.8
			c-7.3-7.3-14.6-14.6-21.9-21.9c2.5-11.5,7-23.1,7.1-34.6C97.5,258.8,97.1,193.5,97,128.2z M136.4,343.6c26.7,0,48.9,0,71.1,0
			c72.5,0,72.5,0,68.8-73.2c-0.1-2.5,0.9-5.8-0.3-7.2c-7.1-8.1-14.3-22-22.2-22.4c-38.9-2.3-77.9-1.1-117.4-1.1
			C136.4,276.5,136.4,307.9,136.4,343.6z M136.4,209.7c67.7,0,131.9,0.9,195.9-1c8.9-0.3,23.5-14.1,24.2-22.5
			c0.7-8.8-11.9-26.7-19.2-27c-66.4-2.1-132.8-1.2-201-1.2C136.4,176.1,136.4,190.4,136.4,209.7z M308.8,241.7c0,35,0,67.4,0,99.6
			c49.5,4,49.5,4,49.7-44.1C358.6,237.9,358.6,237.9,308.8,241.7z"/>
		<path class="st3" d="M111.7,380.5c11.7-2.4,23.3-6.8,35-6.8c73-0.5,146-0.1,219,0c0.1,2.4,0.2,4.8,0.2,7.2
			c-78.2,1.9-156.5,3.9-234.7,5.3C124.7,386.3,118.2,382.5,111.7,380.5z"/>
		<path class="st3" d="M350.8,112.6c-77,0-154,0-231.1,0c-0.1-2.4-0.2-4.8-0.2-7.1c77.1,0,154.3,0,231.4,0
			C351,107.9,350.9,110.3,350.8,112.6z"/>
		<path class="st3" d="M97,128.2c0.1,65.3,0.5,130.6-0.2,195.8c-0.1,11.6-4.6,23.1-7.1,34.6c0-65.3-0.4-130.5,0.2-195.8
			C90.1,151.3,94.6,139.8,97,128.2z"/>
		<path class="st3" d="M388.7,336c-0.1-56.7-0.7-113.3-0.1-170c0.1-10.3,4.6-20.6,7.1-31c0,67,0.1,134.1,0.1,201.2
			C393.5,336.2,391.1,336.1,388.7,336z"/>
		<path class="st4" d="M350.8,112.6c0.1-2.4,0.2-4.8,0.2-7.2c9.9,2.6,19.8,5.2,29.7,7.8C370.7,113.1,360.8,112.9,350.8,112.6z"/>
		<path class="st4" d="M388.7,336c2.4,0.1,4.8,0.2,7.2,0.2c10.2,13.3,13.3,24.7-8,29.7C388.2,355.9,388.4,346,388.7,336z"/>
		<path class="st4" d="M119.6,105.5c0,2.4,0.1,4.8,0.2,7.1c-7.5,0.2-15,0.4-22.5,0.6C104.7,110.6,112.1,108.1,119.6,105.5z"/>
		<path class="st5" d="M365.9,380.9c0-2.4-0.1-4.8-0.2-7.2c5-0.2,10-0.5,15-0.8c-1.7,6.2-3.5,12.5-5.2,18.7
			C372.3,388.1,369.1,384.5,365.9,380.9z"/>
		<path class="st4" d="M388.1,120.3c-2.5-2.4-5-4.8-7.5-7.2C383.1,115.5,385.6,117.9,388.1,120.3z"/>
		<path class="st6" d="M136.4,343.6c0-35.7,0-67.1,0-104c39.5,0,78.6-1.3,117.4,1.1c7.9,0.5,15.1,14.4,22.2,22.4
			c1.2,1.4,0.2,4.8,0.3,7.2c3.7,73.2,3.7,73.2-68.8,73.2C185.3,343.6,163.2,343.6,136.4,343.6z"/>
		<path class="st6" d="M136.4,209.7c0-19.3,0-33.6,0-51.8c68.2,0,134.7-0.9,201,1.2c7.2,0.2,19.9,18.2,19.2,27
			c-0.7,8.5-15.4,22.3-24.2,22.5C268.2,210.6,204.1,209.7,136.4,209.7z"/>
		<path class="st7" d="M308.8,241.7c49.8-3.8,49.8-3.8,49.7,55.5c-0.1,48.1-0.1,48.1-49.7,44.1C308.8,309.1,308.8,276.7,308.8,241.7
			z"/>
	</g>
</g>
</svg>
